<?xml version="1.0" encoding="UTF-8" standalone="no"?>
<svg
   width="210mm"
   height="297mm"
   viewBox="0 0 210 297"
   version="1.1"
   id="svg5"
   inkscape:version="1.1-alpha (17bc918, 2021-03-28)"
   sodipodi:docname="frog.svg"
   xmlns:inkscape="http://www.inkscape.org/namespaces/inkscape"
   xmlns:sodipodi="http://sodipodi.sourceforge.net/DTD/sodipodi-0.dtd"
   xmlns="http://www.w3.org/2000/svg"
   xmlns:svg="http://www.w3.org/2000/svg">
  <sodipodi:namedview
     id="namedview7"
     pagecolor="#ffffff"
     bordercolor="#666666"
     borderopacity="1.0"
     objecttolerance="10.0"
     gridtolerance="10.0"
     guidetolerance="10.0"
     inkscape:pageshadow="2"
     inkscape:pageopacity="0.0"
     inkscape:pagecheckerboard="0"
     inkscape:document-units="mm"
     showgrid="false"
     inkscape:zoom="0.70710678"
     inkscape:cx="342.94679"
     inkscape:cy="555.07882"
     inkscape:window-width="1366"
     inkscape:window-height="705"
     inkscape:window-x="-8"
     inkscape:window-y="-8"
     inkscape:window-maximized="1"
     inkscape:current-layer="layer1"
     showguides="true"
     inkscape:guide-bbox="true" />
  <defs
     id="defs2" />
  <g
     inkscape:label="Layer 1"
     inkscape:groupmode="layer"
     id="layer1">
    <path
       style="fill:#427621;stroke:none;stroke-width:0.264583px;stroke-linecap:butt;stroke-linejoin:miter;stroke-opacity:1;fill-opacity:1"
       d="m 64.171411,153.78688 c 0,0 -9.915697,-15.15418 -16.83798,-9.54152 -6.92228,5.61266 -18.521777,15.71545 -9.354431,24.69571 9.167344,8.98025 14.592914,15.52835 15.715448,15.71544 1.122532,0.18709 -13.470384,1.12254 -17.960514,12.16077 l 25.256972,0 23.011906,-20.39267 z"
       id="path7476" />
    <path
       style="fill:#427621;stroke:none;stroke-width:0.264583px;stroke-linecap:butt;stroke-linejoin:miter;stroke-opacity:1;fill-opacity:1"
       d="m 142.22223,153.78688 c 0,0 9.9157,-15.15418 16.83798,-9.54152 6.92228,5.61266 18.52178,15.71545 9.35443,24.69571 -9.16734,8.98025 -14.59291,15.52835 -15.71544,15.71544 -1.12254,0.18709 13.47038,1.12254 17.96051,12.16077 h -25.25697 l -23.01191,-20.39267 z"
       id="path7558" />
    <ellipse
       style="fill:#5aa02c;stroke-width:10;stroke:none"
       id="path890"
       cx="101.1571"
       cy="80.040138"
       rx="43.596329"
       ry="33.037842" />
    <ellipse
       style="fill:#5aa02c;stroke:none;stroke-width:8.60234"
       id="path914"
       cx="102.6898"
       cy="144.92372"
       rx="40.020069"
       ry="44.788418" />
    <circle
       style="fill:#5aa02c;stroke:none;stroke-width:8.32215"
       id="path1018"
       cx="78.84803"
       cy="54.154819"
       r="21.116972" />
    <circle
       style="fill:#5aa02c;stroke:none;stroke-width:8.32215"
       id="circle1100"
       cx="123.46616"
       cy="55.176609"
       r="21.116972" />
    <ellipse
       style="fill:#ffffff;stroke:none;stroke-width:5.04547"
       id="circle1293"
       cx="86.573692"
       cy="40.678638"
       rx="12.501311"
       ry="13.111129"
       transform="rotate(9.3147011)" />
    <ellipse
       style="fill:#ffffff;stroke:none;stroke-width:5.04547"
       id="ellipse1331"
       cx="130.76889"
       cy="34.465199"
       rx="12.501311"
       ry="13.111129"
       transform="rotate(9.3147011)" />
    <ellipse
       style="fill:#000000;stroke:none;stroke-width:3.27392"
       id="ellipse1369"
       cx="84.451408"
       cy="40.163868"
       rx="8.1118956"
       ry="8.507596"
       transform="rotate(9.3147011)" />
    <ellipse
       style="fill:#000000;stroke:none;stroke-width:3.27392"
       id="ellipse1389"
       cx="128.87244"
       cy="33.223087"
       rx="8.1118956"
       ry="8.507596"
       transform="rotate(9.3147011)" />
    <ellipse
       style="fill:#ffffff;stroke:none;stroke-width:1.42059"
       id="ellipse1391"
       cx="81.634209"
       cy="38.770153"
       rx="3.5198526"
       ry="3.6915519"
       transform="rotate(9.3147011)" />
    <ellipse
       style="fill:#ffffff;stroke:none;stroke-width:1.42059"
       id="ellipse1411"
       cx="127.06355"
       cy="31.66399"
       rx="3.5198526"
       ry="3.6915519"
       transform="rotate(9.3147011)" />
    <path
       style="fill:none;stroke:#18521e;stroke-width:1.765;stroke-linecap:butt;stroke-linejoin:miter;stroke-opacity:1;stroke-miterlimit:4;stroke-dasharray:none"
       d="m 70.844036,88.214448 c 0,0 30.994264,23.501152 58.582564,-0.681191"
       id="path1568" />
    <path
       style="fill:none;stroke:#18521e;stroke-width:1.765;stroke-linecap:butt;stroke-linejoin:miter;stroke-opacity:1;stroke-miterlimit:4;stroke-dasharray:none"
       d="m 70.844036,88.214448 c 0,0 28.610081,19.073392 58.582564,-0.681191"
       id="path1603" />
    <path
       style="fill:#008000;stroke:#18521e;stroke-width:8.58736;stroke-miterlimit:4;stroke-dasharray:none;stroke-opacity:1"
       d=""
       id="path2190"
       transform="scale(0.26458333)" />
    <path
       style="fill:#18521e;stroke:#18521e;stroke-width:0.189756;stroke-miterlimit:4;stroke-dasharray:none;stroke-opacity:1;fill-opacity:1"
       d="m 381.01231,368.76596 c -0.77442,-0.0132 -1.7972,-0.0377 -2.27285,-0.0544 -0.47564,-0.0167 -0.94605,-0.0303 -1.04537,-0.0303 h -0.18056 l 6e-5,-0.32001 7e-5,-0.32001 2.28268,-0.005 c 9.99766,-0.0229 19.76275,-0.78518 29.6614,-2.3155 2.00698,-0.31028 4.97726,-0.8253 6.86803,-1.19087 0.32769,-0.0634 0.6061,-0.11519 0.61869,-0.11519 0.0126,0 0.0229,0.15258 0.0229,0.33906 v 0.33907 l -0.20623,0.0471 c -6.77983,1.55018 -14.46917,2.68866 -21.79631,3.22716 -4.48787,0.32983 -9.54457,0.47448 -13.95249,0.39911 z"
       id="path2461"
       transform="scale(0.26458333)" />
    <path
       style="fill:#18521e;fill-opacity:1;stroke:#18521e;stroke-width:0.759023;stroke-miterlimit:4;stroke-dasharray:none;stroke-opacity:1"
       d="m 375.02455,368.5248 c -3.32759,-0.18442 -10.11452,-0.77537 -10.01764,-0.87225 0.0254,-0.0254 1.03534,0.0114 2.24428,0.0819 2.55875,0.14913 7.6711,0.34396 9.1103,0.34719 0.98551,0.002 0.99559,0.005 0.99559,0.28668 0,0.23851 -0.0505,0.28176 -0.3129,0.26777 -0.1721,-0.009 -1.08093,-0.0593 -2.01963,-0.11129 z"
       id="path3393"
       transform="scale(0.26458333)" />
    <path
       style="fill:#18521e;fill-opacity:1;stroke:#18521e;stroke-width:0.53671;stroke-miterlimit:4;stroke-dasharray:none;stroke-opacity:1"
       d="m 378.46421,375.35292 c -12.42303,-0.41663 -24.85936,-2.11471 -37.0298,-5.05611 l -1.54877,-0.37432 v -6.19712 -6.19712 l 0.18102,0.0453 c 0.4501,0.11276 4.33154,0.80724 6.3359,1.13363 17.44517,2.84083 34.57144,3.43029 51.49173,1.77229 17.88584,-1.75262 35.22067,-5.99365 52.076,-12.7406 0.78597,-0.31462 1.44671,-0.57203 1.46832,-0.57203 0.0216,0 0.0393,2.89002 0.0393,6.42228 v 6.42227 l -1.18672,0.55117 c -9.47562,4.40092 -17.97345,7.48151 -27.29464,9.89474 -11.04281,2.85895 -21.94081,4.43326 -33.71099,4.86986 -1.86507,0.0692 -9.0183,0.0862 -10.82131,0.0257 z m -13.79818,-7.7342 c 0,-0.12999 -0.14253,-0.15531 -1.38786,-0.24654 -3.00819,-0.22038 -3.07227,-0.20025 -0.46262,0.14533 0.95139,0.12598 1.75695,0.23289 1.79014,0.23757 0.0332,0.005 0.0603,-0.0567 0.0603,-0.13636 z m -4.12336,-0.47379 c -0.0774,-0.0202 -0.20416,-0.0202 -0.28159,0 -0.0774,0.0202 -0.0141,0.0368 0.14079,0.0368 0.15488,0 0.21824,-0.0166 0.1408,-0.0368 z m 57.9803,-2.36249 c 2.77112,-0.65675 6.62299,-1.70842 9.30089,-2.53942 1.75953,-0.54601 4.84101,-1.57271 4.81082,-1.60289 -0.0146,-0.0146 -0.4061,0.0804 -0.86994,0.21113 -3.85658,1.08715 -8.68474,2.24293 -13.84861,3.31512 -0.47105,0.0978 -0.86026,0.20498 -0.86491,0.23817 -0.0299,0.21383 4.9e-4,0.70399 0.0437,0.70399 0.0287,0 0.6713,-0.14675 1.42809,-0.3261 z"
       id="path3432"
       transform="scale(0.26458333)" />
    <path
       style="fill:#18521e;fill-opacity:1;stroke:#18521e;stroke-width:0.53671;stroke-miterlimit:4;stroke-dasharray:none;stroke-opacity:1"
       d="m 379.10785,375.5938 c -1.52395,-0.0349 -4.75348,-0.18732 -6.59737,-0.31133 -10.64585,-0.71596 -20.64505,-2.25705 -31.5588,-4.8639 l -1.06604,-0.25463 v -6.43853 -6.43853 l 0.18102,0.0439 c 1.12772,0.27316 7.08981,1.2832 10.27824,1.74124 25.76282,3.70099 51.02496,2.47352 75.26642,-3.65716 8.05084,-2.03606 15.24125,-4.3595 23.76079,-7.67782 1.03225,-0.40206 1.92833,-0.73101 1.99129,-0.73101 0.0981,0 0.11447,0.9493 0.11447,6.6227 v 6.62271 l -0.30171,0.14629 c -2.20509,1.06917 -6.71814,3.03086 -9.91618,4.31026 -16.87362,6.75043 -35.12239,10.46053 -53.42267,10.86118 -3.11394,0.0682 -6.42296,0.0775 -8.72946,0.0247 z M 418.864,364.45891 c 2.0577,-0.49715 4.40563,-1.1258 4.4833,-1.20039 0.0381,-0.0365 -0.28778,0.0175 -0.7241,0.12013 -0.43631,0.10263 -1.75274,0.39112 -2.92538,0.64109 -2.53688,0.54079 -2.41368,0.50753 -2.41368,0.65171 0,0.16235 0.0636,0.1538 1.57986,-0.21254 z"
       id="path3471"
       transform="scale(0.26458333)" />
    <ellipse
       style="fill:#d3bc5f;stroke:none;stroke-width:5.39263"
       id="ellipse3611"
       cx="102.6898"
       cy="148.84059"
       rx="23.501146"
       ry="29.972477" />
    <path
       style="fill:#5aa02c;stroke:none;stroke-width:0.264583px;stroke-linecap:butt;stroke-linejoin:miter;stroke-opacity:1;fill-opacity:1"
       d="m 63.010322,149.52179 c 0,0 3.405962,30.31307 6.811925,34.05963 0,0 -21.116972,2.04358 -22.479357,13.28326 l 31.334862,0 c 0,0 14.645643,2.72477 8.855505,-11.23968 -5.790138,-13.96445 -24.522935,-36.10321 -24.522935,-36.10321 z"
       id="path3682" />
    <path
       style="fill:#5aa02c;stroke:#5aa02c;stroke-width:0.264583px;stroke-linecap:butt;stroke-linejoin:miter;stroke-opacity:1;fill-opacity:1"
       d="m 142.34484,149.52179 c 0,0 -3.40596,30.31307 -6.81193,34.05963 0,0 21.11697,2.04358 22.47936,13.28326 h -31.33486 c 0,0 -14.64565,2.72477 -8.85551,-11.23968 5.79014,-13.96445 24.52294,-36.10321 24.52294,-36.10321 z"
       id="path3799" />
  </g>
</svg>
